<?xml version="1.0" encoding="UTF-8" standalone="no"?>
<svg
   xmlns:dc="http://purl.org/dc/elements/1.1/"
   xmlns:cc="http://creativecommons.org/ns#"
   xmlns:rdf="http://www.w3.org/1999/02/22-rdf-syntax-ns#"
   xmlns:svg="http://www.w3.org/2000/svg"
   xmlns="http://www.w3.org/2000/svg"
   viewBox="0 0 590.73334 361.70667"
   height="361.70667"
   width="590.73334"
   xml:space="preserve"
   id="svg2"
   version="1.1"><metadata
     id="metadata8"><rdf:RDF><cc:Work
         rdf:about=""><dc:format>image/svg+xml</dc:format><dc:type
           rdf:resource="http://purl.org/dc/dcmitype/StillImage" /></cc:Work></rdf:RDF></metadata><defs
     id="defs6" /><g
     transform="matrix(1.3333333,0,0,-1.3333333,0,361.70667)"
     id="g10"><g
       transform="scale(0.1)"
       id="g12"><path
         id="path14"
         style="fill:#0c1d3a;fill-opacity:1;fill-rule:nonzero;stroke:none"
         d="M 4430.53,0 H 0 V 2712.79 H 4430.53 V 0" /><path
         id="path16"
         style="fill:#ffffff;fill-opacity:1;fill-rule:nonzero;stroke:none"
         d="M 884.773,804.41 C 839.434,751.57 803.801,708.832 776.484,675.082 747.98,639.859 730.332,616.27 723.574,600.5 c 22.5,10.492 81.321,83.191 125.918,127.809 26.66,26.582 69.766,65.281 95.996,80.191 l 4.129,-4.488 C 903.887,753.051 794.805,617.398 794.805,602.371 c 0,-1.5 0.422,-1.871 2.273,-1.871 15,0 52.082,40.039 66.692,51.711 v -8.223 c -26.993,-23.648 -50.215,-49.476 -68.543,-49.476 -6.055,0 -8.645,2.629 -8.645,8.258 0,31.062 26.594,66.32 84.356,129.32 19.101,20.59 29.57,30.73 48.703,50.582 -28.457,-24.031 -45.746,-38.981 -69.387,-62.59 -56.895,-57.73 -109.082,-125.57 -127.41,-125.57 -3.723,0 -5.266,2.629 -5.266,7.136 0,35.582 27.742,65.204 97.481,140.184 12.336,13.52 28.504,28.828 42.351,43.5 -17.254,-11.672 -53.609,-45.402 -72.32,-64.133 -37.539,-37.07 -63.742,-65.988 -86.567,-88.808 -28.875,-28.911 -54.421,-37.5 -72.363,-37.5 -15.398,0 -25.535,6.379 -25.535,19.48 0,5.238 5.305,13.481 12.043,13.481 6.004,0 8.965,-3.34 8.965,-7.512 0,-4.07 -2.61,-8.578 -7.113,-8.578 -4.5,0 -6.375,2.609 -6.739,6.758 -1.121,-1.872 -1.851,-3.399 -1.851,-5.25 0,-7.141 9.715,-13.129 19.832,-13.129 19.121,0 41.672,9.75 71.965,40.07 5.64,5.25 33.378,36.008 80.984,83.238 19.852,19.84 64.441,63.352 101.973,85.422 l 4.089,-4.461" /><path
         id="path18"
         style="fill:#ffffff;fill-opacity:1;fill-rule:nonzero;stroke:none"
         d="m 925.254,635.73 c -20.313,-17.011 -35.891,-30.878 -44.973,-30.878 -3.828,0 -5.886,1.5 -5.886,5.57 0,2.43 0.585,5.629 1.757,10.09 -12.031,-10.391 -19.089,-15.332 -27.336,-15.332 -6.492,0 -10.586,3.8 -10.586,14.379 0,26.773 34.125,39.082 49.993,39.082 7.898,0 9.406,-2.649 9.406,-7.93 l 5.84,6.758 17.058,1.453 -36.113,-41.703 c -2.93,-3.489 -4.133,-5.59 -4.133,-6.797 0,-0.531 0.266,-0.891 0.871,-0.891 4.129,0 27.649,17.668 44.102,32.668 z m -36.738,19.149 c -14.121,0 -43.821,-32.07 -43.821,-41.481 0,-2.609 1.782,-4.109 4.121,-4.109 9.7,0 44.114,29.691 44.114,41.422 0,2.379 -2.071,4.168 -4.414,4.168" /><path
         id="path20"
         style="fill:#ffffff;fill-opacity:1;fill-rule:nonzero;stroke:none"
         d="m 922.258,638.98 c 10.867,9.981 22.332,19.661 30.269,19.661 4.692,0 6.45,-1.481 6.45,-7.02 0,-7.98 -3.789,-11.801 -7.622,-18.25 13.774,10.27 32.637,25.27 44.415,25.27 5.28,0 6.41,-2.661 6.41,-8.532 0,-6.468 -3.176,-12.929 -8.801,-18.507 -7.93,-7.911 -22.012,-15.864 -22.012,-20.59 0,-0.59 1.133,-1.723 2.942,-1.723 7.625,0 28.491,15.813 46.381,32.91 v -6.469 c -13.51,-12.039 -33.764,-30.55 -46.698,-30.55 -5.281,0 -7.652,2.91 -7.652,7.672 0,5.867 4.14,14.347 11.465,21.98 5.601,5.359 17.965,15.039 17.965,18.508 0,0.64 -0.332,1.211 -1.2,1.211 -7.058,0 -45.324,-26.153 -67.617,-48.77 h -15.867 l 35.855,40.27 c 1.75,2.031 6.172,6.429 6.172,7.929 0,0.27 -0.281,0.571 -0.933,0.571 -3.489,0 -19.055,-11.153 -29.922,-22.039 v 6.468" /><path
         id="path22"
         style="fill:#ffffff;fill-opacity:1;fill-rule:nonzero;stroke:none"
         d="m 1017.22,638.98 c 9.68,9.102 16.16,13.18 26.46,19.11 h 16.15 l -36.74,-41.758 c -2.36,-2.934 -4.12,-4.703 -4.12,-5.91 0,-0.301 0.27,-0.531 1.18,-0.531 7.35,0 37.61,21.711 63.21,48.199 h 15.88 l -35.59,-40.871 c -2.68,-3.27 -5.56,-5.879 -5.56,-7.098 0,-0.582 0.56,-0.832 1.42,-0.832 7.96,0 31.77,18.82 47.05,32.91 v -6.469 c -19.97,-17.339 -37.3,-30.55 -47.91,-30.55 -4.69,0 -6.78,2.3 -6.78,6.16 0,4.711 3.29,11.73 9.44,19.711 -15.31,-13.492 -31.75,-25.871 -42.07,-25.871 -3.78,0 -6.13,1.461 -6.13,6.781 0,11.109 7.62,19.641 16.75,31.68 l -12.64,-11.129 v 6.468" /><path
         id="path24"
         style="fill:#ffffff;fill-opacity:1;fill-rule:nonzero;stroke:none"
         d="m 1143,663.371 c 10.04,11.438 40.61,48.238 53.54,60.879 10.61,10.879 27.01,23.762 37.05,23.762 5.88,0 9.11,-2.953 9.11,-9.051 0,-10.652 -15.63,-38.223 -87.9,-75.313 l -29.67,-35.898 c 2.92,-1.121 6.14,-1.699 9.1,-1.699 10.58,0 21.47,6.719 30.56,16.148 v -6.469 c -9.99,-9.429 -19.7,-14.089 -29.96,-14.089 -4.12,0 -8.26,0.91 -12.65,2.339 l -68.22,-82.019 h -15.62 l 30.08,34.988 c 12.6,14.672 44.65,61.121 46.1,65.852 l -11.45,-10.289 v 5.879 l 9.37,10.238 c 0.31,3.269 3.56,10.012 7.92,10.012 3.59,0 3.84,-0.86 3.84,-4.391 z m 90.59,80.25 c -6.75,0 -17.04,-9.43 -24.67,-17.031 -14.17,-14.09 -30.02,-33.488 -45.61,-53.211 60,33.5 75.23,57.871 75.23,65.23 0,3.289 -2.29,5.012 -4.95,5.012 m -98.49,-89.371 -12.01,-6.461 c -1.21,-4.148 -4.45,-9.398 -6.5,-11.457 l 1.15,-2.043 z m -21.45,-22.648 -5.56,-8.532 6.43,7.09 z" /><path
         id="path26"
         style="fill:#ffffff;fill-opacity:1;fill-rule:nonzero;stroke:none"
         d="m 1241.24,635.73 c -20.3,-17.011 -35.85,-30.878 -44.98,-30.878 -3.8,0 -5.89,1.5 -5.89,5.57 0,2.43 0.62,5.629 1.78,10.09 -12.05,-10.391 -19.12,-15.332 -27.36,-15.332 -6.45,0 -10.54,3.8 -10.54,14.379 0,26.773 34.09,39.082 49.96,39.082 7.93,0 9.38,-2.649 9.38,-7.93 l 5.85,6.758 17.11,1.453 -36.16,-41.703 c -2.94,-3.489 -4.13,-5.59 -4.13,-6.797 0,-0.531 0.28,-0.891 0.88,-0.891 4.12,0 27.65,17.668 44.1,32.668 z m -36.76,19.149 c -14.11,0 -43.79,-32.07 -43.79,-41.481 0,-2.609 1.74,-4.109 4.1,-4.109 9.72,0 44.13,29.691 44.13,41.422 0,2.379 -2.08,4.168 -4.44,4.168" /><path
         id="path28"
         style="fill:#ffffff;fill-opacity:1;fill-rule:nonzero;stroke:none"
         d="m 1298.23,635.73 c -21.77,-19.679 -39.41,-30.878 -55.87,-30.878 -9.99,0 -12.92,6.16 -12.92,14.707 0,27.023 34.95,39.363 49.97,39.363 7.6,0 9.67,-2.93 9.67,-7.883 0,-5.898 -4.4,-10.848 -9.67,-10.848 -2.66,0 -5.88,1.11 -5.88,5.86 0,2.91 2.06,5.57 6.15,5.57 2.04,0 3.81,-1.223 4.71,-2.391 0.89,3.86 -1.18,5.649 -4.71,5.649 -14.7,0 -43.52,-32.07 -43.52,-42.027 0,-2.731 4.14,-3.872 7.37,-3.872 12.35,0 33.22,13.231 54.7,33.219 v -6.469" /><path
         id="path30"
         style="fill:#ffffff;fill-opacity:1;fill-rule:nonzero;stroke:none"
         d="m 1366.42,704.828 17.03,1.121 -23.79,-27.32 h 18.51 l -4.1,-4.348 h -18.21 l -49.7,-56.179 c -2.98,-3.532 -4.99,-5.922 -4.99,-7.313 0,-0.898 0.88,-1.5 2.64,-1.5 10.26,0 34.96,19.402 49.4,32.91 v -6.469 c -20.02,-17.339 -35.57,-30.878 -50.03,-30.878 -6.12,0 -8.48,1.5 -8.48,7.648 0,13.25 15.56,29.129 29.09,44.969 -7.34,-4.989 -19.69,-16.75 -29.41,-24.957 v 6.468 c 15.59,14.739 27.64,25.25 43.2,35.301 h -9.69 l 4.43,4.348 h 10.86 l 23.24,26.199" /><path
         id="path32"
         style="fill:#ffffff;fill-opacity:1;fill-rule:nonzero;stroke:none"
         d="m 1349.67,638.98 c 9.71,9.102 16.16,13.18 26.46,19.11 h 16.16 l -36.73,-41.758 c -2.35,-2.934 -4.14,-4.703 -4.14,-5.91 0,-0.301 0.32,-0.531 1.18,-0.531 7.34,0 37.61,21.711 63.21,48.199 h 15.88 l -35.6,-40.871 c -2.62,-3.27 -5.58,-5.879 -5.58,-7.098 0,-0.582 0.58,-0.832 1.5,-0.832 7.91,0 31.72,18.82 47,32.91 v -6.469 c -19.96,-17.339 -37.31,-30.55 -47.92,-30.55 -4.68,0 -6.71,2.3 -6.71,6.16 0,4.711 3.2,11.73 9.4,19.711 -15.33,-13.492 -31.78,-25.871 -42.04,-25.871 -3.82,0 -6.18,1.461 -6.18,6.781 0,11.109 7.65,19.641 16.73,31.68 l -12.62,-11.129 v 6.468" /><path
         id="path34"
         style="fill:#ffffff;fill-opacity:1;fill-rule:nonzero;stroke:none"
         d="m 1435.51,638.98 c 9.13,7.969 15.28,13.18 25.29,19.942 -0.89,7.367 2.07,12.379 8.55,12.379 2.62,0 5.56,-1.18 5.56,-5.262 0,-2.98 -0.9,-5.328 -5.31,-5.328 -1.76,0 -4.12,0.289 -4.65,1.148 -1.23,-1.769 1.72,-4.078 4.06,-4.078 0.91,0 1.49,0.309 2.36,0.598 1.17,0.262 2.36,0.543 4.43,0.543 2.93,0 4.39,-6.762 4.39,-9.961 0,-5.852 -31.12,-34.082 -31.12,-38.84 0,-0.582 0,-0.832 1.43,-0.832 6.78,0 26.47,14.992 46.78,32.91 v -6.469 c -14.73,-12.921 -37.08,-31.14 -47.36,-31.14 -3.55,0 -5.28,1.449 -5.28,6.422 0,14.09 7.93,24.437 26.16,42.328 -2.96,0 -5.59,0 -7.93,1.211 -10.01,-6.762 -17.95,-12.922 -27.36,-22.039 v 6.468" /><path
         id="path36"
         style="fill:#ffffff;fill-opacity:1;fill-rule:nonzero;stroke:none"
         d="m 1504.02,631.32 c -5.58,-5.019 -10.84,-14.39 -10.84,-17.371 0,-3.828 4.93,-4.969 7.32,-4.969 16.15,0 39.1,18.782 54.96,33.219 v -6.469 c -15.86,-13.519 -34.41,-30.878 -55.56,-30.878 -9.14,0 -13.21,4.128 -13.21,15.66 0,28.117 39.13,38.41 49.67,38.41 6.76,0 9.68,-2 9.68,-7.883 0,-10.027 -13.78,-18.777 -42.02,-19.719 m 36.75,20.578 c 0,1.442 -1.79,2.981 -3.52,2.981 -5.89,0 -19.12,-7.367 -28.55,-18.547 20.01,0.848 32.07,10.887 32.07,15.566" /><path
         id="path38"
         style="fill:#ffffff;fill-opacity:1;fill-rule:nonzero;stroke:none"
         d="m 1795.14,804.41 c -62.23,2.211 -123.32,-35.601 -123.32,-72.738 0,-18.731 17.21,-37.113 47.24,-37.113 14.57,0 26.98,3.402 42.71,7.16 27.79,45.679 78.72,105.703 116.96,105.703 8.63,0 12.72,-2.633 12.72,-9.774 0,-28.418 -64.11,-78.707 -111.68,-95.929 -9.71,-19.469 -20.26,-38.617 -37.49,-56.258 -33,-33.699 -68.2,-50.949 -108.34,-50.949 -25.85,0 -46.46,5.23 -46.46,24.34 0,7.14 3.38,11.628 10.52,11.628 4.48,0 8.24,-1.511 8.24,-7.16 0,-4.8 -3.04,-6.672 -7.51,-6.672 -1.88,0 -4.11,1.122 -5.23,1.872 1.12,-8.258 10.1,-18.379 39.71,-18.379 52.09,0 85.1,30.339 123.67,94.839 -11.94,-3.378 -22.83,-5.66 -36.7,-5.66 -40.08,0 -55.48,21.36 -55.48,41.239 0,43.523 64.45,81.32 130.44,79.089 z m 70.09,-40.469 c 12.38,12.379 20.98,27.348 20.98,32.981 0,4.488 -2.23,5.598 -6.76,5.598 -16.48,0 -63.29,-23.231 -95.52,-92.938 22.09,8.988 58.8,32.25 81.3,54.359" /><path
         id="path40"
         style="fill:#ffffff;fill-opacity:1;fill-rule:nonzero;stroke:none"
         d="m 1750.51,638.98 c 9.66,9.102 16.12,13.18 26.46,19.11 h 16.11 l -36.72,-41.758 c -2.38,-2.934 -4.09,-4.703 -4.09,-5.91 0,-0.301 0.25,-0.531 1.15,-0.531 7.32,0 37.61,21.711 63.23,48.199 h 15.83 l -35.59,-40.871 c -2.58,-3.27 -5.56,-5.879 -5.56,-7.098 0,-0.582 0.55,-0.832 1.48,-0.832 7.96,0 31.78,18.82 47.05,32.91 v -6.469 c -20.04,-17.339 -37.38,-30.55 -47.98,-30.55 -4.67,0 -6.74,2.3 -6.74,6.16 0,4.711 3.29,11.73 9.41,19.711 -15.27,-13.492 -31.76,-25.871 -42.03,-25.871 -3.82,0 -6.19,1.461 -6.19,6.781 0,11.109 7.65,19.641 16.77,31.68 l -12.59,-11.129 v 6.468" /><path
         id="path42"
         style="fill:#ffffff;fill-opacity:1;fill-rule:nonzero;stroke:none"
         d="m 1881.04,681.57 c 0,4.11 1.72,6.762 5.84,6.762 3.23,0 5,-0.891 5,-4.711 0,-4.699 -2.94,-6.762 -5.85,-6.762 -3.27,0 -4.99,1.262 -4.99,4.711 m -44.74,-42.59 c 5.92,5.008 16.83,13.829 25.28,19.399 h 17.34 l -35.87,-40.277 c -3.18,-3.532 -5.56,-6.141 -5.56,-7.313 0,-0.898 0.58,-1.258 2.06,-1.258 7.05,0 32.33,20.02 46.17,32.668 v -6.469 c -21.21,-18.171 -36.76,-30.55 -46.43,-30.55 -4.44,0 -6.5,1.789 -6.5,7.32 0,10.309 8.51,22.02 17.65,32.07 -4.7,-3.851 -8.83,-6.761 -14.14,-12.058 v 6.468" /><path
         id="path44"
         style="fill:#ffffff;fill-opacity:1;fill-rule:nonzero;stroke:none"
         d="m 1882.14,638.98 c 12.35,10.891 26.73,22.668 29.97,25.84 6.49,6.481 6.74,11.469 11.77,11.469 2.02,0 3.54,-1.769 3.54,-3.801 0,-3.816 -2.67,-5.636 -7.12,-7.668 5.6,-7.66 8.58,-14.422 8.58,-24.398 0,-2.352 -0.32,-4.973 -0.63,-7.91 6.52,-0.25 12.99,4.34 18.58,9.687 v -6.469 c -6.82,-6.761 -11.81,-7.621 -20.64,-7.621 -5.89,-13.871 -29.03,-23.519 -41.14,-23.519 -10.28,0 -14.14,4.699 -14.14,9.648 0,6.543 4.15,9.453 9.41,9.453 3.88,0 6.76,-2.05 6.76,-5.921 0,-3.821 -3.23,-6.141 -5.82,-6.141 -1.19,0 -2.7,0.332 -3.88,0.871 0,-1.711 3.25,-3.211 6.82,-3.211 14.64,0 34.94,24.41 34.94,40.82 0,3.871 -1.45,7.981 -3.18,10.891 l -33.82,-28.488 v 6.468" /><path
         id="path46"
         style="fill:#ffffff;fill-opacity:1;fill-rule:nonzero;stroke:none"
         d="m 1944.05,639.371 c 12.35,10.918 26.77,22.688 29.98,25.961 6.48,6.43 6.76,11.418 11.76,11.418 2.11,0 3.59,-1.738 3.59,-3.789 0,-3.832 -2.69,-5.59 -7.12,-7.629 5.64,-7.672 8.58,-14.422 8.58,-24.422 0,-2.379 -0.36,-5.019 -0.63,-7.93 6.46,-0.32 12.92,4.411 18.53,9.692 v -6.453 c -6.76,-6.778 -11.78,-7.668 -20.6,-7.668 -5.88,-13.809 -29.11,-23.52 -41.13,-23.52 -10.32,0 -14.16,4.719 -14.16,9.711 0,6.457 4.13,9.367 9.44,9.367 3.82,0 6.76,-2.027 6.76,-5.847 0,-3.821 -3.27,-6.192 -5.87,-6.192 -1.2,0 -2.67,0.289 -3.81,0.91 0,-1.789 3.21,-3.23 6.74,-3.23 14.69,0 34.98,24.422 34.98,40.852 0,3.82 -1.47,7.968 -3.25,10.886 l -33.79,-28.508 v 6.391" /><path
         id="path48"
         style="fill:#ffffff;fill-opacity:1;fill-rule:nonzero;stroke:none"
         d="m 2015.43,631.77 c -5.59,-4.989 -10.9,-14.372 -10.9,-17.329 0,-3.832 5.01,-5 7.35,-5 16.19,0 39.16,18.848 54.98,33.231 v -6.453 c -15.82,-13.52 -34.39,-30.879 -55.54,-30.879 -9.17,0 -13.23,4.101 -13.23,15.59 0,28.211 39.09,38.48 49.67,38.48 6.76,0 9.72,-2.031 9.72,-7.969 0,-9.953 -13.84,-18.781 -42.05,-19.671 m 36.74,20.601 c 0,1.469 -1.78,2.93 -3.52,2.93 -5.89,0 -19.12,-7.332 -28.48,-18.539 19.97,0.91 32,10.918 32,15.609" /><path
         id="path50"
         style="fill:#ffffff;fill-opacity:1;fill-rule:nonzero;stroke:none"
         d="m 2237.22,733.219 16.74,1.16 -100.82,-115.258 c -2.03,-2.031 -6.15,-6.762 -6.15,-8.512 0,-0.57 0.27,-0.859 0.87,-0.859 6.5,0 34.07,24.082 44.1,32.922 v -6.453 c -11.47,-9.438 -34.69,-30.879 -44.7,-30.879 -3.52,0 -5.55,1.449 -5.55,5.57 0,2.36 0.87,5.891 2.03,10.879 -8.75,-8.809 -19.38,-16.449 -27.61,-16.449 -6.76,0 -10.6,2.629 -10.6,15.59 0,28.781 40.87,38.172 50.55,38.172 7.38,0 8.82,-3.223 7.96,-9.391 z m -77.01,-82.309 c 0,2.031 -1.76,4.391 -4.99,4.391 -14.13,0 -43.8,-32.891 -43.8,-42.321 0,-2.371 2.34,-3.82 4.07,-3.82 10.07,0 44.72,30 44.72,41.75" /><path
         id="path52"
         style="fill:#ffffff;fill-opacity:1;fill-rule:nonzero;stroke:none"
         d="m 2262.97,706.109 c 11.33,9.922 -2.36,25.961 10.86,27.813 5.13,0.707 9.71,-1.781 10.5,-6.422 2.65,-14.789 -17.11,-27.059 -34.55,-35.059 0,0 -3.17,-0.652 13.19,13.668" /><path
         id="path54"
         style="fill:#ffffff;fill-opacity:1;fill-rule:nonzero;stroke:none"
         d="m 2397.08,758.27 c -16.47,-15.348 -36,-23.188 -52.84,-23.188 -16.54,0 -29.26,9.34 -29.26,23.559 0,20.648 26.96,48.781 73.85,48.781 17.96,0 32.63,-6.742 32.63,-19.883 0,-5.57 -1.9,-10.141 -1.9,-13.098 0,-2.261 1.49,-3.781 6.74,-3.781 20.62,0 39.73,23.262 58.86,37.09 l 5.27,-6.719 c -44.62,-26.242 -65.64,-60.301 -88.13,-96.711 l 37.86,8.262 c 58.51,62.207 112.83,94.418 134.96,94.418 10.51,0 14.98,-4.84 14.98,-11.969 0,-8.23 -5.98,-19.472 -14.63,-28.082 -29.61,-29.629 -78.67,-44.597 -115.84,-55.488 -26.97,-32.191 -66.65,-84.742 -66.65,-102.32 0,-5.661 4.1,-9 10.08,-9 20.28,0 56.57,33.339 78.33,52.07 v -8.223 c -24.73,-22.488 -56.99,-49.097 -77.58,-49.097 -13.85,0 -19.12,7.48 -19.12,20.961 0,25.847 22.89,61.476 48.35,89.23 -10.87,-2.633 -27,-5.992 -34.83,-7.5 -40.92,-64.523 -110.21,-102.293 -139.06,-102.293 -13.17,0 -18.78,5.981 -18.78,16.07 0,9.422 4.15,18.36 19.11,33.313 30.02,30.066 72.35,45.027 118.88,54.789 19.85,26.598 45.32,52.82 60.32,67.488 -5.27,-1.148 -10.14,-1.867 -14.28,-1.867 -10.11,0 -17.23,3.727 -17.23,13.457 0,6.793 3.01,8.691 3.01,13.481 0,7.14 -11.64,10.14 -22.49,10.14 -39.35,0 -67.85,-27.719 -67.85,-43.519 0,-10.493 10.48,-18.379 23.6,-18.379 14.26,0 33.75,7.886 48.77,22.558 z m 177.65,43.89 c -17.28,0 -67.46,-29.601 -107.97,-82.469 92.62,25.891 118.87,60.739 118.87,75.34 0,3.75 -5.3,7.129 -10.9,7.129 M 2260.22,600.141 c 16.53,0 64.12,19.468 112.84,92.14 -94.42,-19.41 -127.83,-67.769 -127.83,-80.519 0,-7.153 6.01,-11.621 14.99,-11.621" /><path
         id="path56"
         style="fill:#ffffff;fill-opacity:1;fill-rule:nonzero;stroke:none"
         d="m 2525.69,635.73 c -7.93,-6.492 -12.34,-7.621 -20.88,-7.332 -12.34,-13.519 -27.6,-23.218 -39.68,-23.218 -7.62,0 -12.93,3.8 -12.93,13.539 0,24.082 34.97,40.203 50.57,40.203 8.54,0 11.44,-4.672 11.44,-10.293 0,-5.52 -2.63,-12.039 -5.85,-16.367 5.85,0.508 11.79,4.59 17.33,9.937 z m -16.18,13.829 c 0,3.25 -2.38,4.992 -5.55,4.992 -14.1,0 -43.82,-32.91 -43.82,-41.461 0,-2.969 2.93,-3.801 5.27,-3.801 7.66,0 20.59,8.481 30.6,18.473 6.76,6.758 13.5,15.879 13.5,21.797" /><path
         id="path58"
         style="fill:#ffffff;fill-opacity:1;fill-rule:nonzero;stroke:none"
         d="m 2522.13,638.98 c 9.07,7.969 15.24,13.18 25.28,19.942 -0.88,7.367 2.07,12.379 8.52,12.379 2.64,0 5.57,-1.18 5.57,-5.262 0,-2.98 -0.89,-5.328 -5.29,-5.328 -1.77,0 -4.12,0.289 -4.72,1.148 -1.13,-1.769 1.78,-4.078 4.08,-4.078 0.91,0 1.51,0.309 2.41,0.598 1.2,0.262 2.36,0.543 4.39,0.543 2.93,0 4.42,-6.762 4.42,-9.961 0,-5.852 -31.17,-34.082 -31.17,-38.84 0,-0.582 0,-0.832 1.48,-0.832 6.77,0 26.44,14.992 46.75,32.91 v -6.469 c -14.71,-12.921 -37.05,-31.14 -47.35,-31.14 -3.52,0 -5.3,1.449 -5.3,6.422 0,14.09 7.93,24.437 26.18,42.328 -2.94,0 -5.6,0 -7.9,1.211 -10.04,-6.762 -17.99,-12.922 -27.35,-22.039 v 6.468" /><path
         id="path60"
         style="fill:#ffffff;fill-opacity:1;fill-rule:nonzero;stroke:none"
         d="m 2580.31,638.98 c 19.12,16.418 40.6,34.399 53.78,47.872 7.66,7.418 26.2,28.589 42.37,46.457 h 15.57 L 2596.8,626.922 c -5.02,-5.613 -12.36,-13.524 -12.36,-16.5 0,-0.883 0.58,-1.133 1.77,-1.133 7.03,0 29.38,20.262 43.47,32.91 v -6.469 c -26.13,-22.64 -34.34,-30.55 -43.78,-30.55 -5.59,0 -7.35,2.3 -7.35,7.91 0,10.32 12.06,25.89 26.74,41.789 l -24.98,-22.367 v 6.468" /><path
         id="path62"
         style="fill:#ffffff;fill-opacity:1;fill-rule:nonzero;stroke:none"
         d="m 2690.73,635.73 c -7.9,-6.492 -12.25,-7.621 -20.82,-7.332 -12.35,-13.519 -27.61,-23.218 -39.68,-23.218 -7.64,0 -12.93,3.8 -12.93,13.539 0,24.082 34.98,40.203 50.54,40.203 8.54,0 11.5,-4.672 11.5,-10.293 0,-5.52 -2.66,-12.039 -5.95,-16.367 5.95,0.508 11.81,4.59 17.34,9.937 z m -16.1,13.829 c 0,3.25 -2.36,4.992 -5.58,4.992 -14.15,0 -43.84,-32.91 -43.84,-41.461 0,-2.969 2.95,-3.801 5.33,-3.801 7.62,0 20.59,8.481 30.56,18.473 6.74,6.758 13.53,15.879 13.53,21.797" /><path
         id="path64"
         style="fill:#ffffff;fill-opacity:1;fill-rule:nonzero;stroke:none"
         d="m 2761.87,659.281 -50.55,-58.261 c 22.01,12.378 38.51,25.281 55.83,41.179 v -6.469 c -19.39,-16.742 -37.9,-32.32 -64.36,-43.449 -7.08,-7.949 -24.96,-27.062 -30.22,-32.34 -23.28,-23.55 -35.02,-30.621 -46.24,-30.621 -5.89,0 -10.27,2.61 -10.27,10.25 0,4.16 2.04,9.391 8.79,16.192 14.99,15.289 32.67,21.429 63.49,34.726 l 15.03,19.403 c -3.2,-1.481 -6.77,-4.11 -13.82,-4.11 -7.96,0 -10.29,5.231 -10.29,14.379 0,25.891 33.19,39.121 50.26,39.121 9.13,0 9.4,-3.562 9.4,-7.949 l 6.46,6.758 z m -79.68,-76.172 c -10.86,-4.988 -38.8,-15.589 -53.23,-29.949 -6.45,-6.512 -8.52,-10.851 -8.52,-14.191 0,-3.438 2.96,-5.52 6.48,-5.52 6.18,0 14.99,4.992 26.2,16.11 10.84,10.57 17.31,19.461 29.07,33.55 m 7.65,27.012 c 12.36,0 44.67,31.82 44.67,40.918 0,1.77 -1.18,4.109 -4.72,4.109 -14.35,0 -43.45,-31.168 -43.45,-41.418 0,-1.23 0.23,-2.101 0.84,-2.718 0.6,-0.59 1.49,-0.891 2.66,-0.891" /><path
         id="path66"
         style="fill:#ffffff;fill-opacity:1;fill-rule:nonzero;stroke:none"
         d="m 2773.85,631.32 c -5.57,-5.019 -10.89,-14.39 -10.89,-17.371 0,-3.828 5.07,-4.969 7.39,-4.969 16.12,0 39.09,18.782 54.95,33.219 v -6.469 c -15.86,-13.519 -34.38,-30.878 -55.58,-30.878 -9.08,0 -13.23,4.128 -13.23,15.66 0,28.117 39.13,38.41 49.69,38.41 6.77,0 9.7,-2 9.7,-7.883 0,-10.027 -13.8,-18.777 -42.03,-19.719 m 36.77,20.578 c 0,1.442 -1.79,2.981 -3.56,2.981 -5.86,0 -19.09,-7.367 -28.5,-18.547 20.02,0.848 32.06,10.887 32.06,15.566" /><path
         id="path68"
         style="fill:#ffffff;fill-opacity:1;fill-rule:nonzero;stroke:none"
         d="m 2821.83,638.98 c 9.07,7.969 15.24,13.18 25.27,19.942 -0.92,7.367 2.01,12.379 8.48,12.379 2.72,0 5.58,-1.18 5.58,-5.262 0,-2.98 -0.87,-5.328 -5.29,-5.328 -1.72,0 -4.11,0.289 -4.7,1.148 -1.17,-1.769 1.82,-4.078 4.13,-4.078 0.85,0 1.44,0.309 2.38,0.598 1.13,0.262 2.31,0.543 4.38,0.543 2.93,0 4.4,-6.762 4.4,-9.961 0,-5.852 -31.16,-34.082 -31.16,-38.84 0,-0.582 0,-0.832 1.51,-0.832 6.71,0 26.43,14.992 46.69,32.91 v -6.469 c -14.68,-12.921 -37.03,-31.14 -47.31,-31.14 -3.53,0 -5.29,1.449 -5.29,6.422 0,14.09 7.95,24.437 26.12,42.328 -2.87,0 -5.55,0 -7.91,1.211 -9.94,-6.762 -17.92,-12.922 -27.28,-22.039 v 6.468" /><path
         id="path70"
         style="fill:#ffffff;fill-opacity:1;fill-rule:nonzero;stroke:none"
         d="m 2924.68,681.57 c 0,4.11 1.77,6.762 5.91,6.762 3.18,0 4.93,-0.891 4.93,-4.711 0,-4.699 -2.89,-6.762 -5.87,-6.762 -3.2,0 -4.97,1.262 -4.97,4.711 m -44.7,-42.59 c 5.9,5.008 16.77,13.829 25.31,19.399 h 17.33 l -35.85,-40.277 c -3.24,-3.532 -5.61,-6.141 -5.61,-7.313 0,-0.898 0.61,-1.258 2.06,-1.258 7.06,0 32.4,20.02 46.2,32.668 v -6.469 c -21.2,-18.171 -36.77,-30.55 -46.49,-30.55 -4.43,0 -6.48,1.789 -6.48,7.32 0,10.309 8.54,22.02 17.66,32.07 -4.73,-3.851 -8.79,-6.761 -14.13,-12.058 v 6.468" /><path
         id="path72"
         style="fill:#ffffff;fill-opacity:1;fill-rule:nonzero;stroke:none"
         d="m 2936.06,631.32 c -5.58,-5.019 -10.87,-14.39 -10.87,-17.371 0,-3.828 5.03,-4.969 7.35,-4.969 16.17,0 39.11,18.782 54.99,33.219 v -6.469 c -15.88,-13.519 -34.36,-30.878 -55.58,-30.878 -9.08,0 -13.24,4.128 -13.24,15.66 0,28.117 39.09,38.41 49.71,38.41 6.78,0 9.7,-2 9.7,-7.883 0,-10.027 -13.8,-18.777 -42.06,-19.719 m 36.75,20.578 c 0,1.442 -1.73,2.981 -3.49,2.981 -5.89,0 -19.13,-7.367 -28.56,-18.547 19.98,0.848 32.05,10.887 32.05,15.566" /><path
         id="path74"
         style="fill:#ffffff;fill-opacity:1;fill-rule:nonzero;stroke:none"
         d="m 3157.91,732.711 16.82,1.211 -100.86,-115.203 c -2.06,-2.071 -6.22,-6.758 -6.22,-8.598 0,-0.582 0.31,-0.832 0.92,-0.832 6.47,0 34.05,24.082 44.07,32.91 v -6.469 c -11.46,-9.429 -34.68,-30.878 -44.68,-30.878 -3.55,0 -5.63,1.5 -5.63,5.57 0,2.43 0.94,5.91 2.08,10.887 -8.82,-8.809 -19.42,-16.457 -27.62,-16.457 -6.76,0 -10.56,2.628 -10.56,15.66 0,28.718 40.87,38.129 50.59,38.129 7.32,0 8.82,-3.243 7.93,-9.411 z m -76.98,-82.313 c 0,2.082 -1.77,4.493 -5.05,4.493 -14.04,0 -43.79,-32.969 -43.79,-42.391 0,-2.379 2.39,-3.852 4.15,-3.852 9.99,0 44.69,30 44.69,41.75" /><path
         id="path76"
         style="fill:#ffffff;fill-opacity:1;fill-rule:nonzero;stroke:none"
         d="m 3119.37,631.32 c -5.57,-5.019 -10.87,-14.39 -10.87,-17.371 0,-3.828 5.01,-4.969 7.34,-4.969 16.16,0 39.12,18.782 54.97,33.219 v -6.469 c -15.85,-13.519 -34.37,-30.878 -55.56,-30.878 -9.12,0 -13.22,4.128 -13.22,15.66 0,28.117 39.1,38.41 49.67,38.41 6.79,0 9.72,-2 9.72,-7.883 0,-10.027 -13.84,-18.777 -42.05,-19.719 m 36.7,20.578 c 0,1.442 -1.72,2.981 -3.45,2.981 -5.93,0 -19.13,-7.367 -28.57,-18.547 19.98,0.848 32.02,10.887 32.02,15.566" /><path
         id="path78"
         style="fill:#ffffff;fill-opacity:1;fill-rule:nonzero;stroke:none"
         d="m 3256.37,635.73 c -12.05,-9.98 -34.4,-30.878 -45.9,-30.878 -5.54,0 -8.49,2.117 -8.49,8.238 0,9.719 8.49,17.961 13.8,23.5 4.72,4.711 15.87,12.969 15.87,16.75 0,0.91 -0.56,1.211 -1.44,1.211 -7.07,0 -48.51,-28.5 -61.44,-43.762 l -58.79,-69.16 h -16.79 l 106.74,120.23 c -8.82,-8.14 -19.44,-17.871 -32.97,-29.347 v 6.468 c 20.63,17.68 39.97,35.301 58.26,52.622 h 11.46 l -47.64,-56.454 c 17.02,12.641 32.64,23.774 42.34,23.774 4.71,0 6.73,-2.602 6.73,-8.211 0,-5.57 -2.02,-11.731 -10.28,-20.281 -7.09,-7.02 -20.58,-15.02 -20.58,-18.801 0,-1.508 0.64,-2.34 3.22,-2.34 7.67,0 27.64,16.762 45.9,32.91 v -6.469" /><path
         id="path80"
         style="fill:#ffffff;fill-opacity:1;fill-rule:nonzero;stroke:none"
         d="m 3252.85,638.98 c 9.7,9.102 16.16,13.18 26.46,19.11 h 16.17 l -36.75,-41.758 c -2.35,-2.934 -4.13,-4.703 -4.13,-5.91 0,-0.301 0.29,-0.531 1.2,-0.531 7.34,0 37.58,21.711 63.19,48.199 h 15.87 l -35.56,-40.871 c -2.65,-3.27 -5.58,-5.879 -5.58,-7.098 0,-0.582 0.58,-0.832 1.45,-0.832 7.92,0 31.74,18.82 47.05,32.91 v -6.469 c -19.97,-17.339 -37.36,-30.55 -47.92,-30.55 -4.71,0 -6.78,2.3 -6.78,6.16 0,4.711 3.26,11.73 9.41,19.711 -15.26,-13.492 -31.75,-25.871 -42.04,-25.871 -3.82,0 -6.15,1.461 -6.15,6.781 0,11.109 7.64,19.641 16.76,31.68 l -12.65,-11.129 v 6.468" /><path
         id="path82"
         style="fill:#ffffff;fill-opacity:1;fill-rule:nonzero;stroke:none"
         d="m 3383.37,681.57 c 0,4.11 1.75,6.762 5.89,6.762 3.19,0 5,-0.891 5,-4.711 0,-4.699 -2.93,-6.762 -5.86,-6.762 -3.28,0 -5.03,1.262 -5.03,4.711 m -44.69,-42.59 c 5.9,5.008 16.78,13.829 25.32,19.399 h 17.31 l -35.83,-40.277 c -3.26,-3.532 -5.59,-6.141 -5.59,-7.313 0,-0.898 0.56,-1.258 2.01,-1.258 7.07,0 32.33,20.02 46.18,32.668 v -6.469 c -21.16,-18.171 -36.75,-30.55 -46.45,-30.55 -4.42,0 -6.49,1.789 -6.49,7.32 0,10.309 8.58,22.02 17.59,32.07 -4.63,-3.851 -8.77,-6.761 -14.05,-12.058 v 6.468" /><path
         id="path84"
         style="fill:#ffffff;fill-opacity:1;fill-rule:nonzero;stroke:none"
         d="m 3384.48,638.98 c 12.36,10.891 26.76,22.668 29.96,25.84 6.5,6.481 6.78,11.469 11.77,11.469 2.07,0 3.55,-1.769 3.55,-3.801 0,-3.816 -2.64,-5.636 -7.05,-7.668 5.57,-7.66 8.53,-14.422 8.53,-24.398 0,-2.352 -0.32,-4.973 -0.61,-7.91 6.48,-0.25 12.94,4.34 18.53,9.687 v -6.469 c -6.75,-6.761 -11.77,-7.621 -20.56,-7.621 -5.89,-13.871 -29.14,-23.519 -41.17,-23.519 -10.28,0 -14.11,4.699 -14.11,9.648 0,6.543 4.15,9.453 9.41,9.453 3.82,0 6.76,-2.05 6.76,-5.921 0,-3.821 -3.28,-6.141 -5.85,-6.141 -1.21,0 -2.67,0.332 -3.85,0.871 0,-1.711 3.22,-3.211 6.76,-3.211 14.72,0 34.99,24.41 34.99,40.82 0,3.871 -1.47,7.981 -3.26,10.891 l -33.8,-28.488 v 6.468" /><path
         id="path86"
         style="fill:#ffffff;fill-opacity:1;fill-rule:nonzero;stroke:none"
         d="m 3495.97,646.582 c 26.1,11.797 73.14,34.387 93.79,50.848 h 6.1 l -87.32,-98.149 h -18.82 l 79.97,78.508 c -22.34,-12.391 -44.96,-23.809 -71.15,-35.34 l -2.57,4.133" /><path
         id="path88"
         style="fill:#ffffff;fill-opacity:1;fill-rule:nonzero;stroke:none"
         d="m 3634.11,695.988 c 9.7,0 17.35,-4.386 17.35,-15.019 0,-13.489 -13.54,-22.328 -37.31,-28.489 2.02,-4.398 3.18,-9.371 3.18,-14.089 0,-22.981 -23.83,-41.493 -47.62,-41.493 -10.81,0 -20.56,3.543 -20.56,16.192 0,22.359 30.27,33.859 51.12,40 -1.12,4.379 -2.06,8.558 -2.06,12.308 0,7.364 2.93,13.872 9.71,20.633 5.01,4.949 14.13,9.957 26.19,9.957 m -26.19,-64.937 c 0,5.281 -2.32,12.347 -5.57,17.91 -26.16,-6.762 -46.73,-20.27 -46.73,-35.563 0,-6.168 5.27,-12.066 14.71,-12.066 14.11,0 37.59,11.758 37.59,29.719 m 38.22,50.281 c 0,5.52 -5.27,10.547 -12.64,10.547 -12.93,0 -26.43,-11.77 -26.43,-20.32 0,-4.079 2.92,-9.7 5.63,-14.637 20.51,4.937 33.44,14.969 33.44,24.41" /><path
         id="path90"
         style="fill:#ffffff;fill-opacity:1;fill-rule:nonzero;stroke:none"
         d="m 3709.96,695.988 c 9.69,0 17.36,-4.386 17.36,-15.019 0,-13.489 -13.53,-22.328 -37.37,-28.489 2.08,-4.398 3.31,-9.371 3.31,-14.089 0,-22.981 -23.89,-41.493 -47.68,-41.493 -10.89,0 -20.58,3.543 -20.58,16.192 0,22.359 30.28,33.859 51.16,40 -1.21,4.379 -2.09,8.558 -2.09,12.308 0,7.364 2.96,13.872 9.71,20.633 5.05,4.949 14.07,9.957 26.18,9.957 m -26.18,-64.937 c 0,5.281 -2.35,12.347 -5.59,17.91 -26.19,-6.762 -46.71,-20.27 -46.71,-35.563 0,-6.168 5.27,-12.066 14.66,-12.066 14.13,0 37.64,11.758 37.64,29.719 m 38.27,50.281 c 0,5.52 -5.34,10.547 -12.66,10.547 -12.91,0 -26.47,-11.77 -26.47,-20.32 0,-4.079 2.94,-9.7 5.57,-14.637 20.58,4.937 33.56,14.969 33.56,24.41" /><path
         id="path92"
         style="fill:#ffffff;fill-opacity:1;fill-rule:nonzero;stroke:none"
         d="m 3760.82,703.68 c 1.23,0.84 2.36,1.461 3.24,1.461 1.45,0 2.63,-0.922 2.63,-2.34 0,-1.262 -0.58,-2.41 -2.36,-3.871 l -9.7,-9.989 c 3.81,0.84 7.64,1.149 10.88,1.149 12.07,0 19.99,-4.699 27.32,-4.699 5.64,0 10.31,5 14.72,9.461 1.16,1.136 2.64,1.738 3.83,1.738 1.18,0 2.03,-0.602 2.03,-1.738 0,-0.911 -0.56,-2.063 -2.03,-3.25 -43.74,-41.204 -82.02,-79.641 -117.6,-125.832 h -21.7 l 117.56,112.019 c -3.87,-0.617 -7.02,-0.93 -10.01,-0.93 -6.71,0 -11.5,1.512 -15.3,2.981 -3.83,1.492 -6.76,2.898 -10.27,2.898 -3.52,0 -8.22,-2.008 -16.19,-10.847 h -6.72 l 29.67,31.789" /><path
         id="path94"
         style="fill:#ffffff;fill-opacity:1;fill-rule:nonzero;stroke:none"
         d="m 2196.52,2044.21 v -32.23 l 83.56,11.59 v -36.7 l -83.59,-11.59 v -61.49 l 83.59,11.59 v -36.69 l -114.21,-15.84 -8.92,-1.22 v 203.83 l 123.13,17.05 v -36.68 z m 180.06,100 h -120.85 c -4.16,0.01 -7.62,1.7 -10.27,4.94 l -24.53,30.4 c -4.28,5.22 -6.47,5.25 -10.64,0 -7.31,-9.07 -21.79,-35.28 -34.76,-35.34 h -120.85 c -11.95,-0.01 -13.29,-3.94 -6.83,-11.62 9.59,-11.42 19.95,-20.15 20.03,-36.31 v -225.55 c 0,-16.87 3.43,-32.35 19.65,-34 72.4,-3.32 121.36,-53.3 121.49,-53.42 3.81,-3.54 9.43,-3.5 13.23,0.04 35.61,33.44 76.45,51.31 121.45,53.38 16.21,1.65 19.64,17.13 19.66,34 v 225.74 c 0.13,15.73 10.6,24.88 20.01,36.07 6.48,7.71 5.15,11.66 -6.79,11.67" /><path
         id="path96"
         style="fill:#ffffff;fill-opacity:1;fill-rule:nonzero;stroke:none"
         d="m 3572.45,1151.24 c 65.01,0 116,54.02 116,118.43 0,64.41 -50.99,118.45 -116,118.45 -64.99,0 -115.99,-54.03 -115.99,-118.45 0,-64.41 51,-118.43 115.99,-118.43 m -0.93,-54.65 c -97.62,2.38 -170.66,76.04 -170.66,174.13 0,97.04 73.05,174.11 170.79,174.11 98.14,0 169.64,-77.17 170.78,-174.06 1.16,-97.4 -72.18,-176.59 -170.91,-174.18 m -1513.47,159.45 -134.09,-14.24 -4.6,-131.74 -54.78,-6.17 10.71,306.65 54.77,6.12 -4.15,-119.01 134.1,15.1 4.17,119.02 55.25,6.23 -10.81,-306.66 -55.15,-6.21 z m 974.64,-241.27 c -8.84,-9.37 -14.54,-24.11 -15.86,-36.379 -1.54,-21.262 5.38,-37.832 21.33,-51.852 15.39,-12.617 36.71,-15.969 55.81,-11.559 3.23,1.098 5.3,2.161 7.71,3.418 z m 94.34,-134.508 c -31.84,-13.532 -75.29,-15.75 -104.53,3.75 -30.42,18.539 -49.57,54.238 -49.34,89.726 0.24,28.082 15.38,56.922 33.8,77.662 -0.02,0.05 -0.04,0.09 -0.06,0.13 l -42.18,60.51 173.71,19.54 -1.12,-41.21 -94.62,-10.65 92.8,-132.779 153.76,179.339 c -0.03,0.31 -0.16,0.74 -0.24,0.93 -41.48,85.37 -42.16,205.4 4.33,288.86 60.16,117.67 188.19,191 320.56,174.15 52.75,-6.23 104.65,-27.3 147.44,-58.75 4.22,-3.2 5.7,-8.7 2.53,-13.35 l -22.99,-29.99 c -3.76,-4.52 -9.06,-4.9 -13.85,-1.7 -66.31,48.62 -159.78,63.51 -237.01,33.38 -67.01,-21.9 -131.74,-84.11 -156.51,-150.24 -29.51,-68.15 -25.2,-163.06 11.48,-227.75 0.13,-0.2 0.36,-0.33 0.32,-0.37 l 50.91,0.71 0.39,-44.87 -17.36,-0.67 c 8.73,-14.23 22.23,-25.1 34.71,-35.83 69,-56.35 181.61,-71.759 261.87,-31.2 41.81,18.08 78.14,51.77 106.99,86.68 3.37,3.78 7.49,5.27 12.03,2.47 l 30.09,-19.47 c 4.24,-2.87 6.7,-7.77 3.47,-12.44 -70.69,-100.682 -183.32,-148.639 -304.87,-132.549 -83.09,11.93 -159.72,62.849 -210.04,129.209 l -152.42,-173.201 30.64,-43.809 -48.6,-5.48 z m -190.24,595.138 -6.39,-196.68 71.86,7.96 c 35.29,5.14 63.31,28.12 78.61,59.85 13.56,28.09 16.88,63.78 2.04,92.08 -18.71,35.62 -57.71,44.65 -95.07,41.6 z m -53.18,48.56 62.32,7.02 c 63.55,7.14 124.85,13.68 170.23,-39.65 23.77,-28.09 35.33,-62.67 33.62,-99.39 -3.52,-75.51 -63.33,-150.66 -140.54,-159.16 l -136.35,-15.49 z M 974.504,1135.5 l -2.746,-76.48 124.182,15.68 c 20.85,6.62 30.52,18 28.89,39.98 -2.25,30.82 -25.89,35.83 -53.32,32.52 z m 167.676,51.95 c 20.15,-12.85 33.42,-31.72 37.72,-55.66 3.36,-18.71 0.88,-39.98 -6.77,-57.35 -12.75,-30.6 -42.92,-53.83 -76.06,-56.85 l -182.558,-20.789 10.359,306.699 132.669,15 c 37.27,3.77 66.52,-15.09 83.92,-47.31 13.51,-24.34 12.56,-58.47 0.72,-83.74 m 1460.44,250.63 -2.6,-75.4 114.78,12.97 c 10.19,1.28 18.92,4.67 25.62,12.6 8.94,11.45 10.83,28.4 5.02,41.7 -7.16,13.03 -21.43,22.91 -36.72,21.09 z m 136.77,-115.27 81.67,-110.86 -63.14,-7.11 -80.23,109.98 c -0.69,0.65 -1.99,1.76 -2.69,1.89 -8.14,-1.33 -61.48,-7.06 -76.88,-8.71 l -4.24,-121.72 -55.34,-6.77 10.71,306.83 155.64,17.41 c 37.58,2.95 76.08,-18.33 90.96,-53.34 13.3,-28.58 9.33,-68.33 -10.21,-93.31 -11.78,-15.02 -28.57,-26.76 -46.25,-34.29 m -1147.86,1.59 -2.6,-75.92 114.78,12.96 c 10.19,1.29 18.92,4.68 25.62,12.6 8.94,11.46 10.82,28.41 5.03,41.71 -7.17,13.05 -22.07,23.34 -37.38,21.52 z m 136.78,-115.8 81.67,-110.85 -63.15,-7.11 -79.55,109.11 c -0.68,0.65 -1.98,1.76 -2.67,1.88 -8.18,-1.32 -62,-6.34 -77.59,-7.79 l -4.25,-121.58 -55.32,-6.76 10.71,307.16 154.99,17.32 c 37.7,2.98 76.68,-18.65 91.61,-53.76 13.31,-28.6 9.33,-68.34 -10.2,-93.32 -11.8,-15.02 -28.58,-26.77 -46.25,-34.3 M 602.09,906.711 3140.58,1192.36 3139.15,1145.43 600.625,859.871 Z m 707.69,385.919 -2.26,-64.56 129.91,14.62 -1.51,-52.42 -130.32,-17.35 -2.75,-78.75 160.39,18.9 -1.86,-54.55 -215.51,-24.27 10.7,306.64 215.49,24.25 -1.91,-54.51 z m 1008.83,113.86 -40.36,-120.26 99.31,11.16 -44.29,110.74 z m 80.7,-163.49 -140.9,-15.85 -27.61,-81.99 -59.94,-6.83 106.38,317.4 91.77,10.33 116.93,-292.26 -56.47,-6.27 z m -1420.912,12 -2.043,-64.19 91.505,10.3 c 41.16,3.17 41.44,65.29 -7.12,63.25 z m -304.265,152.89 -4.653,-133.08 182.59,19.5 -1.699,-55.2 -182.871,-18.69 -6.809,-197.39 182.747,21.29 -1.708,-55.519 -237.785,-26.719 17.305,495.688 237.598,26.79 -2.078,-55.92 -182.637,-20.75" /></g></g></svg>